<?xml version="1.0" encoding="UTF-8"?>
<svg id="Layer_2" data-name="Layer 2" xmlns="http://www.w3.org/2000/svg" viewBox="0 0 110.88 45">
  <defs>
    <style>
      .cls-1 {
        fill: #fff;
      }

      .cls-2 {
        fill: #538423;
      }
    </style>
  </defs>
  <g id="Layer_2-2" data-name="Layer 2">
    <g>
      <path d="M0,23.18H8.15c4.18,0,7.03,2.33,7.03,6.24,0,4.18-3.01,6.4-7.21,6.4H2.86v8.82H0V23.18Zm2.86,10.25H7.83c2.94,0,4.41-1.43,4.41-3.93s-1.78-3.92-4.3-3.92H2.86v7.85Z"/>
      <path d="M18.52,44.63V21.99h2.7v22.64h-2.7Z"/>
      <path d="M37.29,41.22c0,1.42,.12,2.96,.22,3.41h-2.58c-.12-.35-.22-1.09-.26-2.05-.55,1.04-1.79,2.42-4.83,2.42-3.69,0-5.26-2.4-5.26-4.78,0-3.49,2.74-5.09,7.39-5.09h2.67v-1.33c0-1.38-.44-3.06-3.37-3.06-2.61,0-3.05,1.3-3.34,2.52h-2.61c.21-2.16,1.54-4.65,6.04-4.63,3.82,.01,5.94,1.57,5.94,5.12v7.47Zm-2.64-4.21h-2.53c-3.12,0-4.79,.86-4.79,3.07,0,1.63,1.11,2.81,3.04,2.81,3.77,0,4.27-2.54,4.27-5.38v-.5Z"/>
      <path d="M41.97,32.93c0-1.36,0-2.73-.03-3.94h2.62c.07,.46,.11,2.11,.11,2.57,.62-1.34,1.9-2.94,4.92-2.94s5.22,1.79,5.22,5.95v10.06h-2.7v-9.71c0-2.36-.92-3.95-3.31-3.95-2.95,0-4.14,2.24-4.14,5.39v8.28h-2.7v-11.7Z"/>
      <path d="M57.22,28.99h2.7v-4.61h2.7v4.61h3.45v2.2h-3.45v9.16c0,1.52,.37,2.3,1.78,2.3,.38,0,.94-.02,1.36-.13v2.03c-.67,.25-1.59,.29-2.34,.29-2.43,0-3.51-1.26-3.51-3.86v-9.79h-2.7v-2.2Z"/>
      <path d="M73.56,38.2l-2.31,6.44h-2.83l7.64-21.46h3.5l7.97,21.46h-3.03l-2.38-6.44h-8.56Zm7.83-2.44c-2.04-5.64-3.17-8.63-3.63-10.27h-.03c-.52,1.82-1.78,5.45-3.43,10.27h7.09Z"/>
      <path d="M90.54,21.99h2.7v3.37h-2.7v-3.37Zm0,7h2.7v15.64h-2.7v-15.64Z"/>
      <path d="M110.85,21.99v18.22c0,1.47,0,2.91,.03,4.42h-2.59c-.07-.41-.13-1.61-.14-2.22-.77,1.63-2.36,2.59-4.92,2.59-4.02,0-6.49-3.26-6.49-8.03s2.67-8.35,6.99-8.35c2.77,0,4,1.12,4.42,2v-8.63h2.7Zm-11.31,14.9c0,3.78,1.8,5.82,4.25,5.82,3.66,0,4.46-2.7,4.46-6.13s-.73-5.67-4.25-5.67c-2.76,0-4.46,2.18-4.46,5.98Z"/>
    </g>
  </g>
  <g id="Layer_3" data-name="Layer 3">
    <g>
      <path class="cls-2" d="M18.86,22.93s-3.4-7.78,1.09-14.03c4.91-6.84,13.34-7.32,13.34-7.32,0,0,2.65,8.41-1.49,14.29-4.49,6.37-12.93,7.05-12.93,7.05Z"/>
      <path class="cls-2" d="M18.8,8.71c1.23-1.71,2.73-2.93,4.22-3.81C20.21,1.39,15.59,0,15.59,0c0,0-3.54,5.9-1.19,12.35,.59,1.6,1.52,2.86,2.56,3.85-.21-2.2,.04-5,1.83-7.49Z"/>
      <path class="cls-1" d="M20.17,19.79c.77-6.08,5.23-12.68,10.98-15.04-4.8,4.09-8.34,9.3-10.98,15.04h0Z"/>
    </g>
  </g>
</svg>