<?xml version="1.0" encoding="UTF-8"?>
<svg id="Layer_2" data-name="Layer 2" xmlns="http://www.w3.org/2000/svg" viewBox="0 0 104.41 43.37">
  <defs>
    <style>
      .cls-1 {
        fill: #fff;
      }

      .cls-2 {
        fill: #538423;
      }
    </style>
  </defs>
  <g id="Layer_2-2" data-name="Layer 2">
    <g>
      <path d="M0,21.68H7.64c3.91,0,6.6,2.17,6.6,5.95s-2.67,6.11-6.81,6.11H1.74v9.26H0V21.68Zm1.74,10.49H7.57c3.41,0,4.85-1.81,4.85-4.48,0-2.85-1.88-4.45-4.73-4.45H1.74v8.92Z"/>
      <path d="M17.89,43V20.55h1.59v22.45h-1.59Z"/>
      <path d="M34.74,40.08c0,1.34,.12,2.44,.21,2.92h-1.52c-.12-.36-.21-1.04-.27-2.33-.52,1.12-1.85,2.69-4.99,2.69-3.54,0-5.07-2.29-5.07-4.58,0-3.36,2.6-4.88,7.17-4.88h2.88v-1.54c0-1.52-.46-3.54-3.9-3.54-3.05,0-3.51,1.6-3.84,2.84h-1.58c.18-1.7,1.24-4.28,5.45-4.28,3.49,0,5.45,1.47,5.45,4.83v7.86Zm-1.55-4.84h-2.96c-3.37,0-5.44,.88-5.44,3.48,0,1.9,1.36,3.21,3.48,3.21,4.32,0,4.93-2.87,4.93-6.14v-.55Z"/>
      <path d="M39.74,31.6c0-1.34,0-2.62-.03-3.84h1.55c.06,.49,.09,2.45,.06,2.88,.67-1.54,1.92-3.24,5.05-3.24,2.72,0,5.12,1.54,5.12,5.74v9.88h-1.58v-9.63c0-2.69-1.12-4.45-3.75-4.45-3.59,0-4.83,2.97-4.83,6.28v7.79h-1.59v-11.41Z"/>
      <path d="M54.11,27.75h2.83v-4.74h1.58v4.74h3.62v1.47h-3.62v9.86c0,1.7,.37,2.66,1.83,2.66,.45,0,1.09-.03,1.57-.18v1.38c-.53,.21-1.27,.27-1.91,.27-1.97,0-3.07-.99-3.07-3.43v-10.55h-2.83v-1.47Z"/>
      <path d="M69.16,35.68l-2.69,7.32h-1.74l7.82-21.32h2.03l8.15,21.32h-1.86l-2.75-7.32h-8.96Zm8.4-1.57c-2.36-6.3-3.57-9.34-4-10.78h-.03c-.52,1.62-1.88,5.39-3.79,10.78h7.82Z"/>
      <path d="M86.01,20.55h1.58v2.98h-1.58v-2.98Zm0,7.21h1.58v15.25h-1.58v-15.25Z"/>
      <path d="M104.38,20.55v18.07c0,1.46,0,2.87,.03,4.39h-1.52c-.06-.37-.09-1.79-.09-2.54-.76,1.85-2.46,2.91-5.11,2.91-3.96,0-6.34-3.23-6.34-7.81s2.59-8.17,6.74-8.17c3.03,0,4.25,1.3,4.7,2.27v-9.11h1.58Zm-11.36,14.95c0,4.15,2.14,6.39,4.75,6.39,4,0,5.08-2.77,5.08-6.87s-.93-6.15-4.81-6.15c-3,0-5.02,2.39-5.02,6.63Z"/>
    </g>
  </g>
  <g id="Layer_3" data-name="Layer 3">
    <g>
      <path class="cls-2" d="M17.94,22.93s-3.4-7.78,1.09-14.03c4.91-6.84,13.34-7.32,13.34-7.32,0,0,2.65,8.41-1.49,14.29-4.49,6.37-12.93,7.05-12.93,7.05Z"/>
      <path class="cls-2" d="M17.88,8.71c1.23-1.71,2.73-2.93,4.22-3.81C19.28,1.39,14.67,0,14.67,0c0,0-3.54,5.9-1.19,12.35,.59,1.6,1.52,2.86,2.56,3.85-.21-2.2,.04-5,1.83-7.49Z"/>
      <path class="cls-1" d="M19.25,19.79c.77-6.08,5.23-12.68,10.98-15.04-4.8,4.09-8.34,9.3-10.98,15.04h0Z"/>
    </g>
  </g>
</svg>